<?xml version="1.0" standalone="no"?>
<!DOCTYPE svg PUBLIC "-//W3C//DTD SVG 20010904//EN"
 "http://www.w3.org/TR/2001/REC-SVG-20010904/DTD/svg10.dtd">
<svg version="1.0" xmlns="http://www.w3.org/2000/svg"
 width="300.000000pt" height="238.000000pt" viewBox="0 0 300.000000 238.000000"
 preserveAspectRatio="xMidYMid meet">
<metadata>
Created by potrace 1.10, written by Peter Selinger 2001-2011
</metadata>
<g transform="translate(0.000000,238.000000) scale(0.050000,-0.050000)"
fill="#000000" stroke="none">
<path d="M4241 4571 c-14 -17 -31 -74 -37 -126 l-10 -95 -37 87 c-72 169 -128
86 -91 -134 l15 -88 -62 53 c-129 108 -205 40 -96 -86 37 -43 92 -118 122
-168 l55 -89 -32 -158 c-45 -216 -57 -230 -87 -93 -55 249 -258 548 -415 612
-42 16 -123 61 -180 100 -383 258 -936 143 -1256 -260 -384 -486 -344 -1154
96 -1592 l156 -156 -52 -62 c-116 -138 -257 -497 -212 -542 14 -14 17 -82 9
-197 -14 -197 11 -261 140 -353 l62 -44 -636 0 -636 0 -134 -124 c-612 -571
-665 -663 -392 -680 l99 -6 -7 -128 -7 -127 87 12 c354 51 4540 51 4892 1 l85
-13 0 134 0 133 91 -5 c120 -6 189 53 153 133 -35 75 -400 594 -448 635 -37
32 -111 35 -913 36 l-873 0 -65 145 -65 144 40 240 c61 356 63 361 249 568
135 151 164 193 148 220 -16 25 -1 64 63 169 166 274 254 575 300 1025 15 147
31 223 50 233 31 17 70 136 70 211 0 26 23 76 50 112 84 110 51 197 -42 110
l-49 -45 23 64 c45 130 -39 173 -97 50 l-35 -74 -10 117 c-10 121 -36 153 -79
101z m118 -206 c75 145 117 100 52 -56 -36 -86 -21 -87 63 -5 78 75 88 42 16
-52 -35 -46 -50 -91 -50 -150 0 -59 -7 -80 -23 -70 -16 10 -20 4 -11 -18 8
-21 -3 -44 -31 -63 -36 -25 -42 -47 -37 -140 3 -61 -3 -111 -13 -111 -10 0
-14 -28 -9 -61 8 -56 -28 -284 -52 -327 -6 -10 -13 -49 -16 -88 -7 -70 -128
-294 -231 -426 -46 -60 -53 -82 -39 -131 38 -133 -21 -142 -151 -25 -177 160
-174 150 -88 277 169 251 291 545 366 883 l30 133 -56 87 c-31 49 -75 112 -98
141 -119 154 56 94 224 -77 30 -30 55 -48 55 -39 0 38 -46 95 -98 122 -49 25
-59 45 -71 143 -18 139 14 187 49 75 38 -119 54 -120 79 -5 34 159 69 164 81
12 l10 -124 49 95z m-1210 -79 c66 -18 128 -44 136 -57 14 -23 109 -59 139
-53 7 2 5 -23 -7 -55 -17 -51 -26 -56 -76 -41 -46 13 -68 5 -123 -42 -38 -32
-74 -58 -80 -58 -7 0 -57 -20 -110 -44 -112 -50 -168 -59 -168 -28 0 12 -8 10
-18 -6 -10 -15 -27 -21 -38 -14 -12 7 -27 4 -34 -8 -7 -11 -29 -20 -50 -20
-127 0 -367 -106 -472 -208 l-108 -105 11 72 c32 190 150 355 341 475 21 13
28 24 15 25 -112 6 -332 -256 -371 -440 -15 -74 -34 -119 -51 -119 -25 0 -26
49 0 120 5 17 22 68 36 115 14 47 33 85 42 85 9 0 17 14 17 30 0 41 147 190
272 276 178 122 466 164 697 100z m405 -259 c-17 -17 -114 33 -114 59 0 55 31
56 76 3 25 -29 42 -57 38 -62z m-144 -88 c8 -23 84 -117 171 -209 186 -197
193 -218 150 -434 -211 -1079 -1338 -1074 -1538 6 -34 183 219 343 633 398
194 26 374 104 474 204 84 85 94 88 110 35z m-1232 -726 c51 -103 47 -124 -17
-103 -85 27 -130 200 -77 296 23 42 25 41 36 -27 7 -39 33 -113 58 -166z
m1661 188 c47 -86 3 -237 -82 -283 -40 -21 -42 -19 -30 35 7 31 23 109 35 172
23 121 43 140 77 76z m-159 -715 c0 -24 10 -50 21 -57 12 -7 17 -26 11 -41 -6
-16 2 -28 20 -28 17 0 25 -8 19 -19 -6 -10 -3 -24 7 -30 31 -19 7 -96 -45
-144 -52 -48 -73 -43 -73 16 0 21 -11 35 -24 32 -13 -3 -25 8 -25 24 -1 16
-34 47 -75 68 l-73 39 102 116 c104 118 134 124 135 24z m-976 -191 c52 -25
95 -56 95 -69 1 -14 28 -56 61 -93 l61 -69 -62 -62 c-104 -104 -301 -74 -369
57 -68 132 -20 255 110 280 6 1 52 -19 104 -44z m735 16 c165 -86 36 -371
-169 -371 -138 0 -248 120 -172 188 21 19 49 61 62 93 14 32 33 54 42 48 10
-6 34 -2 53 9 27 16 29 21 5 22 -27 1 -27 3 0 20 43 28 114 24 179 -9z m-310
-76 c-51 -167 -238 -174 -295 -11 -10 30 0 33 82 24 52 -5 121 -1 154 9 33 11
63 20 66 21 4 1 1 -18 -7 -43z m-153 -409 c-3 -68 2 -130 10 -138 7 -8 14 54
14 139 0 91 8 153 20 153 40 0 179 -105 167 -126 -7 -11 -4 -14 9 -7 11 8 26
5 33 -5 7 -11 36 -12 71 -2 40 12 60 10 60 -4 0 -12 16 -8 35 9 91 81 159 44
119 -65 -22 -63 -32 -109 -43 -210 -5 -44 -17 -107 -26 -140 -19 -68 -18 -178
2 -245 41 -141 41 -136 8 -109 -22 18 -33 19 -39 3 -4 -14 -41 -1 -94 34 -47
31 -97 57 -109 57 -39 0 -132 213 -124 283 7 63 -33 122 -79 117 -110 -12
-175 -98 -109 -145 44 -31 123 -182 108 -206 -11 -18 -152 -6 -167 15 -7 9
-47 34 -90 56 -106 55 -156 169 -168 385 -11 206 -44 217 -44 15 0 -82 -7
-150 -15 -150 -26 1 -68 34 -67 52 2 23 -98 50 -124 34 -12 -7 -14 -2 -5 12 8
13 5 35 -7 50 -29 34 75 244 118 238 87 -12 162 -38 161 -56 -1 -11 13 -19 29
-17 17 1 60 3 96 5 45 1 92 24 145 71 95 85 111 69 105 -103z m-551 -315 l115
2 0 -87 c0 -81 -3 -86 -40 -66 -27 15 -40 15 -40 1 0 -12 10 -21 23 -21 12 0
112 -65 222 -144 l200 -144 79 46 c89 51 101 47 101 -30 0 -45 15 -60 98 -95
53 -22 97 -48 97 -57 0 -28 -130 -17 -176 15 -24 17 -44 22 -44 11 0 -31 69
-62 138 -62 33 0 65 -8 71 -19 21 -34 -64 -42 -147 -14 -45 16 -82 21 -82 13
0 -16 80 -51 150 -67 28 -6 24 -9 -16 -11 -31 -1 -74 7 -95 19 -24 12 -39 13
-39 1 0 -10 11 -23 25 -29 16 -6 13 -10 -7 -11 -46 -3 -137 74 -162 136 -11
28 -25 42 -29 29 -7 -17 -28 -18 -73 -5 -35 11 -127 23 -204 26 -168 9 -284
47 -220 73 22 9 28 17 14 18 -93 5 -224 290 -224 489 0 7 34 7 75 -2 41 -9
127 -15 190 -15z m615 -42 c0 -64 -56 -88 -93 -39 -32 44 -3 90 55 90 27 0 38
-14 38 -51z m116 -332 c81 -211 25 -188 -78 31 -67 143 -72 163 -42 174 21 8
39 0 47 -20 7 -17 40 -101 73 -185z m124 -138 c0 -57 -33 -48 -56 16 -50 137
-50 137 4 79 29 -31 52 -74 52 -95z m265 -74 c-47 -4 -123 -4 -170 0 -47 5 -8
8 85 8 94 0 132 -3 85 -8z m838 -249 l119 -156 529 0 529 0 0 44 c0 24 -25 70
-55 102 -45 49 -47 55 -13 37 24 -12 48 -16 55 -9 7 6 19 -5 27 -26 7 -21 30
-55 50 -77 20 -21 36 -49 36 -63 0 -13 34 -52 75 -85 l75 -62 -2648 0 c-1457
-1 -2645 2 -2640 6 4 4 49 30 98 57 152 85 238 145 239 168 1 12 23 33 50 48
27 14 45 33 40 42 -45 72 177 125 549 132 205 4 395 13 422 20 99 25 135 20
125 -18 -5 -20 -23 -36 -39 -36 -19 0 -26 -12 -18 -31 6 -18 31 -98 55 -179
l42 -147 1033 6 c1189 8 1056 2 1017 46 -39 45 -64 125 -38 125 13 0 14 23 2
65 -31 106 -23 125 66 171 77 39 86 40 92 9 4 -18 61 -103 126 -189z m977 85
l150 -138 -517 -7 c-431 -5 -520 -1 -540 23 -18 22 -17 25 2 14 37 -23 30 18
-9 50 -23 18 -29 19 -19 2 22 -36 2 -31 -30 9 -18 23 -19 29 -2 19 37 -23 30
18 -9 50 -29 23 -31 23 -16 -3 15 -26 13 -26 -16 -3 -38 31 -46 53 -11 31 13
-8 18 -3 12 14 -5 15 -19 26 -29 24 -11 -2 -19 9 -19 25 0 24 71 29 451 29
l452 -1 150 -138z m-2453 54 c27 -29 85 -63 130 -76 69 -21 123 -85 123 -147
0 -1 -224 -2 -497 -2 l-498 0 -31 100 c-17 55 -37 115 -44 134 -31 80 743 71
817 -9z m953 36 c17 -7 67 -68 112 -137 l82 -124 -435 0 -435 0 -22 69 c-16
52 -15 73 4 85 31 20 74 20 74 1 0 -8 23 -42 51 -75 l51 -60 -9 90 c-4 50 -15
112 -24 138 l-15 48 268 -11 c147 -6 282 -17 298 -24z m-1717 -316 c-9 -9 -35
47 -57 124 -53 181 -31 204 28 28 26 -74 39 -142 29 -152z m3227 44 c-279 -23
-850 -22 -850 1 0 13 183 19 515 17 389 -3 471 -7 335 -18z m-2393 -12 c134
-10 183 -20 183 -40 0 -22 -82 -27 -425 -27 -234 0 -460 -6 -502 -13 -68 -11
-76 -9 -70 25 11 55 422 83 814 55z m878 0 c187 -11 225 -18 225 -45 0 -29
-49 -31 -451 -26 -343 4 -450 11 -444 30 14 42 319 61 670 41z m1837 -228
c-53 -9 -177 -15 -275 -14 -97 1 -183 -4 -190 -12 -8 -7 73 -13 180 -13 170 0
193 -4 195 -35 3 -33 3 -33 12 0 7 27 31 35 109 35 70 0 98 -7 92 -24 -9 -29
-135 -36 -135 -8 0 10 -6 13 -13 6 -7 -7 -1 -27 13 -44 22 -27 -3 -30 -218
-30 -148 0 -242 8 -242 20 0 11 -27 20 -60 20 -33 0 -60 -9 -60 -20 0 -11 -16
-20 -35 -20 -30 1 -31 3 -5 20 26 17 25 19 -5 20 -19 0 -35 -9 -35 -20 0 -11
-16 -20 -35 -20 -30 1 -31 3 -5 20 26 17 25 19 -5 20 -19 0 -35 -9 -35 -20 0
-11 -13 -20 -30 -20 -16 0 -30 14 -30 31 0 17 -9 26 -20 19 -12 -7 -15 -21 -9
-31 6 -11 2 -19 -10 -19 -11 0 -21 11 -21 25 -1 18 -5 18 -18 -2 -13 -21 -21
-22 -32 -3 -12 19 -18 19 -30 0 -11 -18 -25 -17 -58 3 -37 23 -46 23 -62 -3
-17 -27 -19 -27 -20 0 -1 27 -3 27 -20 0 -16 -24 -20 -20 -22 20 -3 47 -4 47
-12 5 -5 -26 -23 -45 -42 -45 -29 1 -30 3 -4 20 26 17 25 19 -5 20 -19 0 -36
-11 -37 -25 -1 -20 -3 -20 -11 0 -13 33 -127 33 -129 0 -1 -20 -3 -20 -11 0
-6 14 -25 25 -44 25 -25 -1 -27 -5 -7 -17 16 -10 4 -16 -36 -16 -40 0 -52 6
-36 16 19 12 17 16 -9 17 -19 0 -35 -9 -35 -20 0 -11 -10 -20 -21 -20 -12 0
-16 9 -9 20 7 11 3 20 -9 20 -11 0 -21 -9 -21 -20 0 -11 -10 -20 -21 -20 -12
0 -16 9 -9 20 7 11 4 20 -7 20 -11 0 -24 -11 -30 -25 -7 -19 -15 -18 -31 5
-18 26 -21 26 -22 1 0 -23 -5 -24 -24 -5 -29 29 -63 32 -46 4 8 -13 -536 -20
-1619 -20 -1436 0 -1631 4 -1631 30 0 17 -10 30 -23 30 -13 0 -18 6 -10 13 7
8 -12 30 -42 50 -53 36 26 37 2585 35 1452 -2 2596 -10 2542 -19z m-1075 -200
c5 -16 12 -17 21 -2 9 14 155 25 413 29 418 8 609 -1 567 -27 -14 -9 -28 -36
-32 -61 -8 -54 -2 -49 -73 -66 -55 -13 -57 -11 -45 39 18 72 -17 112 -77 89
-26 -10 -52 -12 -58 -6 -7 7 -18 -4 -25 -22 -7 -19 -3 -45 9 -57 13 -13 23
-28 23 -34 0 -23 -270 3 -284 28 -11 19 -126 30 -126 11 0 -1 -20 -7 -45 -11
-25 -5 -45 -2 -45 6 0 23 -668 18 -685 -5 -9 -13 -14 -13 -15 0 0 11 -50 20
-110 21 -61 0 -110 -7 -110 -16 0 -40 -170 -6 -176 35 -6 41 -1777 41 -2619 0
-255 -13 -293 -11 -360 23 -74 36 -50 37 1632 47 2051 12 2209 11 2220 -21z
m816 -73 c-6 -6 -27 -5 -47 3 -34 13 -34 16 4 43 39 29 77 -12 43 -46z m-2897
23 c-18 -17 -315 -23 -304 -6 6 10 79 17 163 17 83 0 147 -5 141 -11z m860 -4
c-150 -3 -402 -3 -560 0 -157 3 -34 6 274 6 308 0 437 -3 286 -6z m-2261 -39
c-30 -5 -84 -5 -120 0 -36 4 -11 8 55 8 66 0 95 -4 65 -8z"/>
<path d="M2555 3577 c-30 -11 -55 -28 -55 -38 0 -9 29 -5 65 10 36 15 92 23
125 18 46 -8 53 -5 30 11 -36 26 -92 26 -165 -1z"/>
<path d="M3249 3578 c-10 -15 5 -18 47 -9 40 9 82 3 123 -18 33 -18 61 -23 61
-12 0 52 -202 87 -231 39z"/>
<path d="M2585 3447 c-69 -28 -113 -231 -61 -283 57 -57 292 -30 306 36 36
163 -104 304 -245 247z m167 -57 c88 -88 63 -218 -43 -226 -117 -9 -189 24
-189 85 0 157 134 238 232 141z"/>
<path d="M2644 3336 c-37 -37 -29 -92 17 -117 52 -28 99 6 99 71 0 63 -71 91
-116 46z"/>
<path d="M3193 3407 c-51 -50 -62 -96 -53 -207 5 -65 -2 -61 125 -63 147 -2
189 14 200 76 37 191 -146 321 -272 194z m154 11 c175 -80 104 -269 -96 -254
-150 11 -116 225 43 275 2 0 26 -9 53 -21z"/>
<path d="M3224 3336 c-60 -60 1 -156 75 -117 64 34 42 141 -29 141 -12 0 -33
-11 -46 -24z"/>
<path d="M2880 3068 c0 -36 47 -68 100 -68 53 0 100 32 100 68 0 11 -11 9 -24
-4 -13 -13 -47 -24 -76 -24 -29 0 -63 11 -76 24 -13 13 -24 15 -24 4z"/>
<path d="M2739 2950 c9 -11 23 -49 30 -85 50 -234 372 -243 421 -13 7 32 20
72 28 88 14 26 -19 30 -239 30 -168 0 -250 -7 -240 -20z m441 -33 c0 -8 -14
-28 -31 -45 -17 -18 -26 -40 -20 -51 25 -39 -67 -101 -148 -101 -96 0 -192 78
-127 102 33 13 33 15 -4 29 -38 15 -69 46 -70 69 0 6 90 10 200 10 110 0 200
-6 200 -13z"/>
</g>
</svg>
